HIERARCHY
ROOT Hips
{
	OFFSET 0.000000 97.167313 0.000000
	CHANNELS 6 Xposition Yposition Zposition Xrotation Yrotation Zrotation
	JOINT Spine
	{
		OFFSET 0.000000 13.784798 0.064400
		CHANNELS 3 Xrotation Yrotation Zrotation
		JOINT Spine1
		{
			OFFSET 0.000000 12.037903 0.404700
			CHANNELS 3 Xrotation Yrotation Zrotation
			JOINT Spine2
			{
				OFFSET 0.000000 17.795601 0.420200
				CHANNELS 3 Xrotation Yrotation Zrotation
				JOINT Neck
				{
					OFFSET 0.000000 39.131302 11.954600
					CHANNELS 3 Xrotation Yrotation Zrotation
					JOINT Head
					{
						OFFSET 0.000000 14.456192 15.627699
						CHANNELS 3 Xrotation Yrotation Zrotation
						JOINT HeadTop_End
						{
							OFFSET 0.000000 15.703506 7.603401
							CHANNELS 3 Xrotation Yrotation Zrotation
							End Site
							{
								OFFSET 0.000000 17.447403 0.000000
							}
						}
					}
				}
				JOINT LeftShoulder
				{
					OFFSET 17.399500 24.608795 1.168800
					CHANNELS 3 Xrotation Yrotation Zrotation
					JOINT LeftArm
					{
						OFFSET 18.980635 5.765305 1.818600
						CHANNELS 3 Xrotation Yrotation Zrotation
						JOINT LeftForeArm
						{
							OFFSET 49.290169 0.000000 0.000000
							CHANNELS 3 Xrotation Yrotation Zrotation
							JOINT LeftHand
							{
								OFFSET 31.562012 0.000000 0.000000
								CHANNELS 3 Xrotation Yrotation Zrotation
								JOINT LeftHandThumb1
								{
									OFFSET 6.133995 -4.388519 7.076070
									CHANNELS 3 Xrotation Yrotation Zrotation
									JOINT LeftHandThumb2
									{
										OFFSET 6.037666 -3.485840 3.485847
										CHANNELS 3 Xrotation Yrotation Zrotation
										JOINT LeftHandThumb3
										{
											OFFSET 6.496506 -3.750763 3.750761
											CHANNELS 3 Xrotation Yrotation Zrotation
											JOINT LeftHandThumb4
											{
												OFFSET 5.616882 -3.242905 3.242910
												CHANNELS 3 Xrotation Yrotation Zrotation
												End Site
												{
													OFFSET -1.254608 7.132141 0.375429
												}
											}
										}
									}
								}
								JOINT LeftHandPinky1
								{
									OFFSET 18.920792 -0.453171 -11.426712
									CHANNELS 3 Xrotation Yrotation Zrotation
									JOINT LeftHandPinky2
									{
										OFFSET 4.919586 0.000000 0.000000
										CHANNELS 3 Xrotation Yrotation Zrotation
										JOINT LeftHandPinky3
										{
											OFFSET 5.233047 0.000000 0.000000
											CHANNELS 3 Xrotation Yrotation Zrotation
											JOINT LeftHandPinky4
											{
												OFFSET 5.571716 0.000000 0.000000
												CHANNELS 3 Xrotation Yrotation Zrotation
												End Site
												{
													OFFSET -3.459808 4.342407 -0.466164
												}
											}
										}
									}
								}
								JOINT LeftHandRing1
								{
									OFFSET 22.726120 -0.094986 -6.500475
									CHANNELS 3 Xrotation Yrotation Zrotation
									JOINT LeftHandRing2
									{
										OFFSET 6.408615 0.000000 0.000000
										CHANNELS 3 Xrotation Yrotation Zrotation
										JOINT LeftHandRing3
										{
											OFFSET 6.150223 0.000000 0.000000
											CHANNELS 3 Xrotation Yrotation Zrotation
											JOINT LeftHandRing4
											{
												OFFSET 6.145386 0.000000 0.000000
												CHANNELS 3 Xrotation Yrotation Zrotation
												End Site
												{
													OFFSET -3.671402 4.923981 -0.202372
												}
											}
										}
									}
								}
								JOINT LeftHandMiddle1
								{
									OFFSET 23.373947 0.000000 0.000001
									CHANNELS 3 Xrotation Yrotation Zrotation
									JOINT LeftHandMiddle2
									{
										OFFSET 6.996567 0.000000 0.000000
										CHANNELS 3 Xrotation Yrotation Zrotation
										JOINT LeftHandMiddle3
										{
											OFFSET 7.015945 0.000000 0.000000
											CHANNELS 3 Xrotation Yrotation Zrotation
											JOINT LeftHandMiddle4
											{
												OFFSET 7.721573 0.000000 0.000000
												CHANNELS 3 Xrotation Yrotation Zrotation
												End Site
												{
													OFFSET -4.651108 6.158463 0.251582
												}
											}
										}
									}
								}
								JOINT LeftHandIndex1
								{
									OFFSET 21.310577 -0.490082 6.209344
									CHANNELS 3 Xrotation Yrotation Zrotation
									JOINT LeftHandIndex2
									{
										OFFSET 7.536453 0.000000 0.000000
										CHANNELS 3 Xrotation Yrotation Zrotation
										JOINT LeftHandIndex3
										{
											OFFSET 7.512344 0.000000 0.000000
											CHANNELS 3 Xrotation Yrotation Zrotation
											JOINT LeftHandIndex4
											{
												OFFSET 10.212402 0.000000 0.000001
												CHANNELS 3 Xrotation Yrotation Zrotation
												End Site
												{
													OFFSET -5.180801 8.690506 1.388433
												}
											}
										}
									}
								}
							}
						}
					}
				}
				JOINT RightShoulder
				{
					OFFSET -17.399500 24.608795 1.168800
					CHANNELS 3 Xrotation Yrotation Zrotation
					JOINT RightArm
					{
						OFFSET -18.980635 5.765305 1.818600
						CHANNELS 3 Xrotation Yrotation Zrotation
						JOINT RightForeArm
						{
							OFFSET -49.290169 0.000000 0.000000
							CHANNELS 3 Xrotation Yrotation Zrotation
							JOINT RightHand
							{
								OFFSET -31.562012 0.000000 0.000000
								CHANNELS 3 Xrotation Yrotation Zrotation
								JOINT RightHandThumb1
								{
									OFFSET -6.133995 -4.388519 7.076070
									CHANNELS 3 Xrotation Yrotation Zrotation
									JOINT RightHandThumb2
									{
										OFFSET -6.037666 -3.485840 3.485847
										CHANNELS 3 Xrotation Yrotation Zrotation
										JOINT RightHandThumb3
										{
											OFFSET -6.496506 -3.750763 3.750761
											CHANNELS 3 Xrotation Yrotation Zrotation
											JOINT RightHandThumb4
											{
												OFFSET -5.616882 -3.242905 3.242910
												CHANNELS 3 Xrotation Yrotation Zrotation
												End Site
												{
													OFFSET 1.254608 7.132141 0.375429
												}
											}
										}
									}
								}
								JOINT RightHandIndex1
								{
									OFFSET -21.310577 -0.490082 6.209344
									CHANNELS 3 Xrotation Yrotation Zrotation
									JOINT RightHandIndex2
									{
										OFFSET -7.536453 0.000000 0.000000
										CHANNELS 3 Xrotation Yrotation Zrotation
										JOINT RightHandIndex3
										{
											OFFSET -7.512344 0.000000 0.000000
											CHANNELS 3 Xrotation Yrotation Zrotation
											JOINT RightHandIndex4
											{
												OFFSET -10.212402 0.000000 0.000001
												CHANNELS 3 Xrotation Yrotation Zrotation
												End Site
												{
													OFFSET 5.180801 8.690506 1.388433
												}
											}
										}
									}
								}
								JOINT RightHandMiddle1
								{
									OFFSET -23.373947 0.000000 0.000001
									CHANNELS 3 Xrotation Yrotation Zrotation
									JOINT RightHandMiddle2
									{
										OFFSET -6.996567 0.000000 0.000000
										CHANNELS 3 Xrotation Yrotation Zrotation
										JOINT RightHandMiddle3
										{
											OFFSET -7.015945 0.000000 0.000000
											CHANNELS 3 Xrotation Yrotation Zrotation
											JOINT RightHandMiddle4
											{
												OFFSET -7.721573 0.000000 0.000000
												CHANNELS 3 Xrotation Yrotation Zrotation
												End Site
												{
													OFFSET 4.651108 6.158463 0.251582
												}
											}
										}
									}
								}
								JOINT RightHandRing1
								{
									OFFSET -22.726120 -0.094986 -6.500475
									CHANNELS 3 Xrotation Yrotation Zrotation
									JOINT RightHandRing2
									{
										OFFSET -6.408615 0.000000 0.000000
										CHANNELS 3 Xrotation Yrotation Zrotation
										JOINT RightHandRing3
										{
											OFFSET -6.150223 0.000000 0.000000
											CHANNELS 3 Xrotation Yrotation Zrotation
											JOINT RightHandRing4
											{
												OFFSET -6.145386 0.000000 0.000000
												CHANNELS 3 Xrotation Yrotation Zrotation
												End Site
												{
													OFFSET 3.671402 4.923981 -0.202372
												}
											}
										}
									}
								}
								JOINT RightHandPinky1
								{
									OFFSET -18.920792 -0.453171 -11.426712
									CHANNELS 3 Xrotation Yrotation Zrotation
									JOINT RightHandPinky2
									{
										OFFSET -4.919586 0.000000 0.000000
										CHANNELS 3 Xrotation Yrotation Zrotation
										JOINT RightHandPinky3
										{
											OFFSET -5.233047 0.000000 0.000000
											CHANNELS 3 Xrotation Yrotation Zrotation
											JOINT RightHandPinky4
											{
												OFFSET -5.571716 0.000000 0.000000
												CHANNELS 3 Xrotation Yrotation Zrotation
												End Site
												{
													OFFSET 3.459808 4.342407 -0.466164
												}
											}
										}
									}
								}
							}
						}
					}
				}
			}
		}
	}
	JOINT LeftUpLeg
	{
		OFFSET 19.899099 -7.885101 -3.429500
		CHANNELS 3 Xrotation Yrotation Zrotation
		JOINT LeftLeg
		{
			OFFSET 1.745560 -36.997807 10.304700
			CHANNELS 3 Xrotation Yrotation Zrotation
			JOINT LeftFoot
			{
				OFFSET -1.745558 -29.803308 -13.615400
				CHANNELS 3 Xrotation Yrotation Zrotation
				JOINT LeftToeBase
				{
					OFFSET 1.181900 -18.539904 15.226099
					CHANNELS 3 Xrotation Yrotation Zrotation
					JOINT LeftToe_End
					{
						OFFSET -0.863701 1.402801 16.534700
						CHANNELS 3 Xrotation Yrotation Zrotation
						End Site
						{
							OFFSET 0.000000 16.616566 0.000000
						}
					}
				}
			}
		}
	}
	JOINT RightUpLeg
	{
		OFFSET -19.899099 -7.885101 -3.429500
		CHANNELS 3 Xrotation Yrotation Zrotation
		JOINT RightLeg
		{
			OFFSET -1.745560 -36.997807 10.304700
			CHANNELS 3 Xrotation Yrotation Zrotation
			JOINT RightFoot
			{
				OFFSET 1.745558 -29.803308 -13.615400
				CHANNELS 3 Xrotation Yrotation Zrotation
				JOINT RightToeBase
				{
					OFFSET -1.181900 -18.539904 15.226099
					CHANNELS 3 Xrotation Yrotation Zrotation
					JOINT RightToe_End
					{
						OFFSET 0.863701 1.402801 16.534700
						CHANNELS 3 Xrotation Yrotation Zrotation
						End Site
						{
							OFFSET 0.000000 16.616566 0.000000
						}
					}
				}
			}
		}
	}
}
MOTION
Frames: 4
Frame Time: 0.033333
-15.508818 69.048439 97.132637 8.720637 37.948886 -8.709717 5.126281 -4.660607 1.400063 10.133058 -8.297962 2.499685 10.139467 -8.287144 2.577232 1.753092 -6.233337 -3.563206 -14.173935 -5.060959 12.381303 -0.000001 0.000000 -0.000000 10.773069 -34.734551 34.153121 -111.983226 -33.225650 -65.645631 11.282891 -44.987420 3.658414 -6.272803 -10.669430 5.346527 4.306754 -1.558801 -5.137244 15.732320 12.674825 8.828569 76.225164 -10.255415 -16.925535 -0.000000 -0.000001 0.000001 -8.837221 8.274734 -56.386675 -0.020176 -0.050867 -45.639911 -0.004826 -0.034973 -29.526822 -0.000000 -0.000003 -0.000006 -4.446732 3.923189 -59.141317 -1.091433 -0.672429 -59.020846 -0.104355 1.185566 -72.505880 -0.000004 0.000001 0.000005 -7.086257 1.132312 -51.618482 -0.063071 -4.895876 -71.831932 1.509535 0.538139 -67.243260 -0.000000 -0.000001 0.000004 -6.960787 -3.007058 -34.030089 0.003471 -4.389290 -57.820529 1.852078 0.687177 -69.585824 -0.000001 0.000003 0.000002 0.788814 -6.429024 -22.169295 -65.368845 35.572636 45.481191 122.423587 82.713850 -165.507491 -38.853801 2.551665 -34.412088 24.918344 -21.323374 30.343016 9.041938 8.262107 -18.001799 -16.109838 -19.128884 -12.401667 -0.000001 -0.000002 0.000001 -0.070701 -3.035194 61.424212 0.006487 4.395152 66.609193 1.919211 -0.429123 59.456653 -0.000003 -0.000003 -0.000001 -1.235394 -0.119474 68.274270 -0.077296 4.902845 84.501905 0.918968 -1.334261 32.710268 -0.000000 -0.000000 -0.000002 0.883177 -4.613469 79.192943 -0.717773 1.136481 73.255773 -0.065399 -1.198586 39.144361 -0.000002 0.000001 -0.000005 -3.944548 0.100023 86.764754 -0.029807 0.060137 54.415151 -0.007572 0.030579 25.829825 0.000002 0.000003 0.000003 -18.146228 -1.231109 30.608130 62.797688 -19.456781 0.800586 -46.700667 5.316073 -7.491240 -5.122092 -0.004222 -6.170238 0.000000 -0.000001 0.000000 -57.193788 8.721116 -17.372721 34.061030 18.260489 -7.740332 13.323605 -1.009901 30.720784 -0.003225 -0.000086 0.000305 -0.000000 0.000001 0.000000 
-16.765289 68.586761 98.207733 9.253173 40.444685 -9.074061 5.530543 -4.085920 1.455265 10.730235 -7.256041 2.468608 10.710868 -7.268997 2.552165 -0.054296 -7.279674 -2.479952 -14.100161 -6.339177 10.652092 0.000001 0.000000 -0.000000 13.752518 -43.805008 36.961972 -96.208522 -18.647852 -62.674328 8.667276 -47.137062 1.927181 1.309290 -9.004283 -4.763726 4.306750 -1.558799 -5.137246 15.732320 12.674824 8.828571 76.225171 -10.255415 -16.925531 0.000002 -0.000000 0.000000 -8.837221 8.274734 -56.386671 -0.020176 -0.050867 -45.639908 -0.004830 -0.034970 -29.526822 0.000000 0.000001 0.000001 -4.446734 3.923190 -59.141317 -1.091433 -0.672429 -59.020846 -0.104354 1.185567 -72.505880 -0.000002 -0.000000 0.000002 -7.086257 1.132310 -51.618485 -0.063072 -4.895871 -71.831932 1.509533 0.538140 -67.243267 -0.000000 0.000003 0.000007 -6.960787 -3.007047 -34.030086 0.003466 -4.389288 -57.820529 1.852081 0.687181 -69.585831 -0.000001 0.000003 0.000001 2.076614 -5.870804 -17.034423 -74.093728 34.530639 68.258704 27.143657 89.020772 -67.414466 -28.877592 0.424466 -30.359248 24.918344 -21.323374 30.343020 9.041934 8.262103 -18.001797 -16.109838 -19.128884 -12.401667 -0.000000 0.000000 -0.000000 -0.070700 -3.035194 61.424205 0.006489 4.395153 66.609186 1.919209 -0.429127 59.456660 -0.000001 -0.000003 -0.000001 -1.235392 -0.119477 68.274270 -0.077301 4.902846 84.501905 0.918966 -1.334260 32.710264 0.000002 0.000002 -0.000003 0.883177 -4.613471 79.192943 -0.717771 1.136481 73.255780 -0.065395 -1.198590 39.144364 -0.000002 0.000002 -0.000007 -3.944549 0.100022 86.764747 -0.029801 0.060135 54.415154 -0.007574 0.030584 25.829819 0.000002 -0.000004 -0.000002 -20.123648 -0.901891 32.620744 63.581316 -16.125329 0.515572 -44.190842 7.297155 -10.801722 -5.501681 -0.002884 -6.908715 -0.000000 0.000001 0.000000 -57.073488 11.444149 -18.033207 38.113968 14.724334 -6.910050 10.699008 -1.822658 30.364641 -0.050420 -0.001075 0.112824 -0.000000 0.000001 0.000000 
-17.769035 68.740524 98.971107 10.150917 44.402093 -9.531766 5.602324 -3.844049 1.421657 10.875632 -6.991254 2.405252 10.863970 -6.992466 2.487522 -1.338055 -7.802030 -1.300584 -13.304912 -7.678329 8.696894 -0.000002 0.000000 -0.000000 14.716807 -46.366551 37.778965 -81.471084 -5.449728 -63.966696 12.750360 -47.394276 1.745003 0.940536 -1.558909 -10.237621 4.306752 -1.558799 -5.137242 15.732311 12.674819 8.828570 76.225164 -10.255414 -16.925533 0.000003 0.000002 -0.000002 -8.837216 8.274731 -56.386675 -0.020174 -0.050869 -45.639911 -0.004826 -0.034973 -29.526822 -0.000000 0.000002 0.000001 -4.446730 3.923194 -59.141324 -1.091433 -0.672427 -59.020846 -0.104355 1.185565 -72.505880 -0.000002 -0.000001 0.000003 -7.086257 1.132312 -51.618482 -0.063069 -4.895875 -71.831932 1.509532 0.538145 -67.243274 0.000001 -0.000003 0.000006 -6.960788 -3.007050 -34.030086 0.003466 -4.389285 -57.820529 1.852084 0.687179 -69.585824 -0.000000 0.000003 0.000004 3.553605 -1.972752 -9.773782 -71.576168 33.749283 79.680509 -38.293811 78.452338 -2.595424 -30.338146 -1.001445 -27.681882 24.918344 -21.323374 30.343016 9.041940 8.262106 -18.001795 -16.109836 -19.128886 -12.401664 0.000000 0.000000 -0.000000 -0.070701 -3.035195 61.424212 0.006488 4.395150 66.609193 1.919214 -0.429128 59.456653 0.000003 -0.000003 0.000001 -1.235392 -0.119479 68.274270 -0.077297 4.902844 84.501912 0.918970 -1.334265 32.710264 -0.000003 0.000001 -0.000004 0.883176 -4.613472 79.192943 -0.717775 1.136483 73.255773 -0.065388 -1.198582 39.144364 0.000002 0.000000 -0.000007 -3.944545 0.100020 86.764747 -0.029805 0.060135 54.415157 -0.007571 0.030587 25.829824 0.000001 -0.000000 0.000006 -22.161809 -2.473263 32.511414 63.166491 -12.364478 0.906959 -41.049287 8.986202 -14.203494 -5.680439 -0.000682 -7.520063 -0.000000 0.000001 -0.000000 -55.979049 11.722583 -20.590631 41.248301 12.524223 -5.904043 7.865809 -2.574331 29.523148 -0.036381 -0.002795 0.071216 -0.000000 -0.000001 0.000000 
-18.462437 69.684250 99.420799 11.308262 49.422791 -10.274911 5.599571 -3.654454 1.330648 10.980714 -6.946696 2.270212 10.975597 -6.977801 2.358843 -2.364984 -8.873228 -0.311576 -12.243061 -9.007327 7.437654 0.000000 -0.000000 0.000001 13.945115 -44.431077 36.319265 -75.056826 2.824765 -70.558340 13.520926 -30.976356 -3.876401 -0.741312 1.933081 -8.634572 4.306750 -1.558803 -5.137238 15.732316 12.674821 8.828572 76.225157 -10.255415 -16.925530 -0.000001 0.000001 0.000001 -8.837218 8.274729 -56.386678 -0.020176 -0.050867 -45.639911 -0.004824 -0.034970 -29.526822 -0.000001 -0.000005 -0.000001 -4.446732 3.923192 -59.141317 -1.091432 -0.672428 -59.020846 -0.104357 1.185565 -72.505880 -0.000002 0.000000 0.000005 -7.086259 1.132312 -51.618482 -0.063070 -4.895876 -71.831932 1.509532 0.538138 -67.243274 0.000000 0.000001 0.000004 -6.960786 -3.007052 -34.030086 0.003466 -4.389289 -57.820529 1.852078 0.687178 -69.585831 -0.000000 0.000001 0.000002 3.893717 7.605472 -3.209153 -62.631776 30.410396 76.404743 -35.117424 60.452932 -5.672228 -39.446248 -7.143334 -21.298825 24.918340 -21.323369 30.343020 9.041939 8.262103 -18.001795 -16.109834 -19.128886 -12.401668 0.000000 -0.000001 0.000001 -0.070701 -3.035195 61.424212 0.006486 4.395149 66.609193 1.919213 -0.429129 59.456653 0.000000 -0.000003 -0.000001 -1.235391 -0.119478 68.274270 -0.077299 4.902849 84.501905 0.918969 -1.334261 32.710264 -0.000000 0.000000 -0.000001 0.883177 -4.613468 79.192943 -0.717774 1.136482 73.255780 -0.065392 -1.198588 39.144361 0.000003 -0.000000 -0.000003 -3.944545 0.100026 86.764754 -0.029806 0.060133 54.415157 -0.007568 0.030584 25.829822 -0.000002 -0.000001 0.000000 -24.131787 -4.965846 30.916455 61.056489 -9.082536 1.608675 -37.153074 9.921666 -17.133231 -5.678484 0.007486 -8.025403 -0.000000 -0.000001 -0.000000 -53.473363 9.973602 -24.414704 42.736272 11.045986 -4.810944 5.278093 -3.171731 28.485270 -0.043183 -0.005211 0.085029 -0.000000 -0.000000 0.000000 
